<svg width="28" height="28" viewBox="0 0 28 28" fill="none" xmlns="http://www.w3.org/2000/svg">
<g id="Wishlist PDP">
<circle id="Ellipse 483" opacity="0.7" cx="14.0001" cy="12.8333" r="5.58818" stroke="#FB3958" stroke-width="0.490302"/>
<circle id="Ellipse 484" cx="14" cy="12.9548" r="4.18928" stroke="#FB3958" stroke-width="0.371441"/>
<path id="Vector" d="M13.2619 7.65015L14.0001 8.8102L14.7383 7.65015C15.8018 5.97883 17.681 4.90539 19.8333 4.90539C23.2 4.90539 25.9582 7.66363 25.9582 11.0304C25.9582 12.5171 25.2721 14.0858 24.1224 15.6536C22.9794 17.2123 21.4363 18.6906 19.8626 19.9782C18.2931 21.2623 16.7193 22.3357 15.5355 23.0891C14.9444 23.4652 14.4527 23.7602 14.11 23.9605C14.0721 23.9827 14.036 24.0037 14.0017 24.0235C13.9673 24.0034 13.9308 23.982 13.8925 23.9595C13.5498 23.7577 13.0579 23.4606 12.4667 23.0821C11.2826 22.3241 9.70838 21.2451 8.13855 19.9571C6.56438 18.6655 5.02077 17.185 3.87735 15.6284C2.72678 14.062 2.04198 12.5011 2.04198 11.0304C2.04198 7.66363 4.80019 4.90539 8.16687 4.90539C10.3192 4.90539 12.1983 5.97883 13.2619 7.65015Z" fill="#FF487F" stroke="#FF487F" stroke-width="1.74998"/>
</g>
</svg>
