<svg width="28" height="28" viewBox="0 0 28 28" fill="none" xmlns="http://www.w3.org/2000/svg">
<g id="Wishlist">
<path id="Vector" d="M13.3672 7.05266L14 8.04697L14.6327 7.05266C15.7193 5.3451 17.6384 4.25 19.8333 4.25C23.2691 4.25 26.0833 7.06421 26.0833 10.5C26.0833 12.0243 25.3806 13.6189 24.2233 15.1971C23.0716 16.7675 21.5198 18.2534 19.9417 19.5445C18.3673 20.8327 16.7891 21.909 15.6025 22.6641C15.0099 23.0412 14.5168 23.3371 14.173 23.538C14.1108 23.5744 14.0535 23.6076 14.0014 23.6376C13.9491 23.6072 13.8915 23.5736 13.829 23.5368C13.485 23.3344 12.9918 23.0364 12.3991 22.657C11.2123 21.8972 9.63377 20.8153 8.05901 19.5233C6.48053 18.2282 4.92824 16.7402 3.77628 15.172C2.61818 13.5954 1.91663 12.0085 1.91663 10.5C1.91663 7.06421 4.73084 4.25 8.16663 4.25C10.3615 4.25 12.2806 5.3451 13.3672 7.05266Z" stroke="#9E9D9D" stroke-width="1.5"/>
</g>
</svg>
